<svg width="26" height="26" viewBox="0 0 26 26" fill="none" xmlns="http://www.w3.org/2000/svg">
<path d="M24.7356 12.0166L22.9856 10.2666C22.6612 9.94248 22.2432 9.72852 21.7906 9.65492C21.338 9.58132 20.8737 9.6518 20.4634 9.85641L15.5196 4.91266C15.7244 4.50242 15.795 4.03821 15.7216 3.58563C15.6482 3.13305 15.4345 2.71497 15.1106 2.39047L13.3606 0.64047C12.9503 0.230377 12.394 0 11.814 0C11.2339 0 10.6776 0.230377 10.2674 0.64047L3.26743 7.64047C2.85734 8.05069 2.62696 8.60699 2.62696 9.18703C2.62696 9.76708 2.85734 10.3234 3.26743 10.7336L5.01743 12.4836C5.34079 12.807 5.75738 13.0209 6.20861 13.0952C6.65984 13.1696 7.12303 13.1007 7.53306 12.8981L1.02524 19.4016C0.368791 20.058 -9.7819e-09 20.9484 0 21.8767C9.7819e-09 22.8051 0.368791 23.6954 1.02524 24.3519C1.6817 25.0083 2.57204 25.3771 3.5004 25.3771C4.42876 25.3771 5.3191 25.0083 5.97556 24.3519L12.4702 17.8517C12.2695 18.2612 12.2018 18.7232 12.2765 19.173C12.3512 19.6229 12.5646 20.0382 12.887 20.3608L14.637 22.1108C14.8401 22.314 15.0813 22.4752 15.3467 22.5852C15.6122 22.6952 15.8967 22.7518 16.1841 22.7518C16.4714 22.7518 16.7559 22.6952 17.0214 22.5852C17.2869 22.4752 17.528 22.314 17.7312 22.1108L24.7312 15.1108C24.9344 14.9076 25.0956 14.6665 25.2056 14.401C25.3156 14.1355 25.3722 13.851 25.3722 13.5637C25.3722 13.2763 25.3156 12.9918 25.2056 12.7263C25.0956 12.4609 24.9344 12.2197 24.7312 12.0166H24.7356ZM6.56399 10.3191L5.43087 9.18813L11.814 2.8061L12.9449 3.93813L6.56399 10.3191ZM4.11837 22.4958C3.95418 22.6598 3.73156 22.7519 3.49947 22.7518C3.26737 22.7517 3.04483 22.6594 2.88079 22.4952C2.71675 22.331 2.62465 22.1084 2.62475 21.8763C2.62486 21.6442 2.71715 21.4217 2.88134 21.2577L9.39134 14.7477L10.6284 15.9858L4.11837 22.4958ZM14.2574 15.9016L9.47556 11.1197L13.7412 6.85406L18.5231 11.6359L14.2574 15.9016ZM16.1879 19.9484L15.057 18.8131L21.439 12.4322L22.5699 13.5631L16.1879 19.9484Z" fill="#4D4D4D"/>
</svg>
