<svg width="24" height="21" viewBox="0 0 24 21" fill="none" xmlns="http://www.w3.org/2000/svg">
<path d="M21.4375 0H2.1875C1.60734 0 1.05094 0.230468 0.640704 0.640704C0.230468 1.05094 0 1.60734 0 2.1875V17.9375C0 18.5177 0.230468 19.0741 0.640704 19.4843C1.05094 19.8945 1.60734 20.125 2.1875 20.125H21.4375C22.0177 20.125 22.5741 19.8945 22.9843 19.4843C23.3945 19.0741 23.625 18.5177 23.625 17.9375V2.1875C23.625 1.60734 23.3945 1.05094 22.9843 0.640704C22.5741 0.230468 22.0177 0 21.4375 0ZM8.75 10.0625C8.75 9.45679 8.92961 8.86469 9.26612 8.36107C9.60264 7.85744 10.0809 7.46491 10.6405 7.23312C11.2001 7.00133 11.8159 6.94068 12.41 7.05884C13.004 7.17701 13.5497 7.46869 13.978 7.89699C14.4063 8.32528 14.698 8.87097 14.8162 9.46504C14.9343 10.0591 14.8737 10.6749 14.6419 11.2345C14.4101 11.7941 14.0176 12.2724 13.5139 12.6089C13.0103 12.9454 12.4182 13.125 11.8125 13.125C11.0003 13.125 10.2213 12.8023 9.64699 12.228C9.07266 11.6537 8.75 10.8747 8.75 10.0625ZM11.8125 15.75C13.47 15.7447 15.0675 16.3704 16.2805 17.5H7.34453C8.55753 16.3704 10.155 15.7447 11.8125 15.75ZM21 17.5H19.6394C18.7334 16.0148 17.4219 14.8195 15.8594 14.0547C16.6476 13.2565 17.1822 12.2429 17.3959 11.1416C17.6096 10.0403 17.4928 8.90045 17.0602 7.86536C16.6276 6.83028 15.8986 5.94623 14.9649 5.32444C14.0311 4.70265 12.9343 4.37088 11.8125 4.37088C10.6907 4.37088 9.59388 4.70265 8.66013 5.32444C7.72638 5.94623 6.99737 6.83028 6.5648 7.86536C6.13224 8.90045 6.01544 10.0403 6.22911 11.1416C6.44278 12.2429 6.97737 13.2565 7.76562 14.0547C6.20307 14.8195 4.89158 16.0148 3.98562 17.5H2.625V2.625H21V17.5Z" fill="white"/>
</svg>
