<svg width="25" height="20" viewBox="0 0 25 20" fill="none" xmlns="http://www.w3.org/2000/svg">
<path d="M1.74535 10.4969C1.39725 10.4969 1.06341 10.3586 0.817269 10.1125C0.571127 9.86634 0.432846 9.53251 0.432846 9.18441C0.432846 8.83631 0.571127 8.50247 0.817269 8.25633C1.06341 8.01019 1.39725 7.87191 1.74535 7.87191H4.80785C4.92388 7.87191 5.03516 7.82581 5.11721 7.74377C5.19925 7.66172 5.24535 7.55044 5.24535 7.43441C5.24535 7.31838 5.19925 7.2071 5.11721 7.12505C5.03516 7.043 4.92388 6.99691 4.80785 6.99691H3.05785C2.27849 6.99572 1.5289 6.69745 0.961793 6.16285C0.39469 5.62825 0.0527398 4.89755 0.00560915 4.11961C-0.0415215 3.34168 0.209713 2.57504 0.708129 1.97589C1.20655 1.37673 1.91464 0.990142 2.68816 0.894877C2.775 0.636129 2.94035 0.410892 3.16119 0.250511C3.38203 0.0901293 3.64737 0.00258333 3.92029 5.62883e-05C4.19321 -0.00247075 4.46013 0.080147 4.6839 0.236411C4.90767 0.392676 5.07716 0.614813 5.16878 0.871908H5.68285C6.03094 0.871908 6.36478 1.01019 6.61092 1.25633C6.85707 1.50247 6.99535 1.83631 6.99535 2.18441C6.99535 2.5325 6.85707 2.86634 6.61092 3.11249C6.36478 3.35863 6.03094 3.49691 5.68285 3.49691H3.05785C2.94181 3.49691 2.83053 3.543 2.74849 3.62505C2.66644 3.7071 2.62035 3.81838 2.62035 3.93441C2.62035 4.05044 2.66644 4.16172 2.74849 4.24377C2.83053 4.32581 2.94181 4.37191 3.05785 4.37191H4.80785C5.58721 4.37309 6.33679 4.67137 6.9039 5.20597C7.471 5.74057 7.81295 6.47127 7.86008 7.2492C7.90721 8.02714 7.65598 8.79378 7.15756 9.39293C6.65915 9.99208 5.95105 10.3787 5.17753 10.4739C5.09069 10.7327 4.92534 10.9579 4.7045 11.1183C4.48366 11.2787 4.21832 11.3662 3.9454 11.3688C3.67248 11.3713 3.40556 11.2887 3.18179 11.1324C2.95802 10.9761 2.78853 10.754 2.69691 10.4969H1.74535ZM24.4953 2.18441V17.0594C24.4953 17.6396 24.2649 18.196 23.8546 18.6062C23.4444 19.0164 22.888 19.2469 22.3078 19.2469H3.05785C2.47768 19.2469 1.92129 19.0164 1.51105 18.6062C1.10081 18.196 0.870346 17.6396 0.870346 17.0594V13.9969C0.870346 13.6488 1.00863 13.315 1.25477 13.0688C1.50091 12.8227 1.83475 12.6844 2.18285 12.6844C2.53094 12.6844 2.86478 12.8227 3.11092 13.0688C3.35707 13.315 3.49535 13.6488 3.49535 13.9969V16.6219H15.7453V13.9969H8.30785C7.95975 13.9969 7.62591 13.8586 7.37977 13.6125C7.13363 13.3663 6.99535 13.0325 6.99535 12.6844C6.99535 12.3363 7.13363 12.0025 7.37977 11.7563C7.62591 11.5102 7.95975 11.3719 8.30785 11.3719H15.7453V8.74691H10.9328C10.5847 8.74691 10.2509 8.60863 10.0048 8.36249C9.75863 8.11634 9.62035 7.7825 9.62035 7.43441C9.62035 7.08631 9.75863 6.75247 10.0048 6.50633C10.2509 6.26019 10.5847 6.12191 10.9328 6.12191H21.8703V3.49691H10.0578C9.70975 3.49691 9.37591 3.35863 9.12977 3.11249C8.88363 2.86634 8.74535 2.5325 8.74535 2.18441C8.74535 1.83631 8.88363 1.50247 9.12977 1.25633C9.37591 1.01019 9.70975 0.871908 10.0578 0.871908H23.1828C23.5309 0.871908 23.8648 1.01019 24.1109 1.25633C24.3571 1.50247 24.4953 1.83631 24.4953 2.18441ZM18.3703 11.3719H21.8703V8.74691H18.3703V11.3719ZM21.8703 16.6219V13.9969H18.3703V16.6219H21.8703Z" fill="#4D4D4D"/>
</svg>
