<svg width="25" height="25" viewBox="0 0 25 25" fill="none" xmlns="http://www.w3.org/2000/svg">
<path d="M23.8602 11.5041L12.997 0.640947C12.7945 0.437074 12.5535 0.275439 12.288 0.165416C12.0225 0.0553929 11.7379 -0.000829399 11.4505 9.24568e-06H1.31251C0.964413 9.24568e-06 0.630573 0.13829 0.384432 0.384432C0.13829 0.630573 9.24568e-06 0.964413 9.24568e-06 1.31251V11.4505C-0.000829399 11.7379 0.0553929 12.0225 0.165416 12.288C0.275439 12.5535 0.437074 12.7945 0.640947 12.997L11.5041 23.8602C11.9143 24.2703 12.4706 24.5006 13.0506 24.5006C13.6307 24.5006 14.187 24.2703 14.5972 23.8602L23.8602 14.5972C24.2703 14.187 24.5006 13.6307 24.5006 13.0506C24.5006 12.4706 24.2703 11.9143 23.8602 11.5041ZM13.0506 21.6945L2.62501 11.2656V2.62501H11.2656L21.6913 13.0506L13.0506 21.6945ZM8.31251 6.56251C8.31251 6.90863 8.20987 7.24697 8.01758 7.53476C7.82529 7.82254 7.55198 8.04685 7.2322 8.1793C6.91243 8.31175 6.56057 8.34641 6.2211 8.27888C5.88163 8.21136 5.56981 8.04469 5.32507 7.79995C5.08033 7.5552 4.91366 7.24338 4.84613 6.90392C4.77861 6.56445 4.81327 6.21258 4.94572 5.89281C5.07817 5.57304 5.30248 5.29973 5.59026 5.10744C5.87805 4.91514 6.21639 4.81251 6.56251 4.81251C7.02664 4.81251 7.47176 4.99688 7.79995 5.32507C8.12813 5.65326 8.31251 6.09838 8.31251 6.56251Z" fill="#4D4D4D"/>
</svg>
